<?xml version="1.0" encoding="utf-8"?>
<!-- Generator: Adobe Illustrator 24.0.1, SVG Export Plug-In . SVG Version: 6.00 Build 0)  -->
<svg version="1.1" id="_x31__x2C_5" xmlns="http://www.w3.org/2000/svg" xmlns:xlink="http://www.w3.org/1999/xlink" x="0px"
	 y="0px" viewBox="0 0 512 512" style="enable-background:new 0 0 512 512;" xml:space="preserve">
<style type="text/css">
	.st0{fill:#EDEDED;}
	.st1{fill:#F79433;}
	.st2{fill:#2FDF84;}
	.st3{fill:#297873;}
	.st4{fill:#DB832D;}
	.st5{fill:#256B67;}
	.st6{fill:#D6D6D6;}
	.st7{fill:#474D54;}
</style>
<path class="st0" d="M437.4,457H74.6c-21.7,0-39.2-17.6-39.2-39.2V123.6h441.2v294.2C476.6,439.5,459.1,457,437.4,457z"/>
<g>
	<path class="st1" d="M35.4,123.6h441.2V94.2c0-21.7-17.6-39.2-39.2-39.2H74.6c-21.7,0-39.2,17.6-39.2,39.2V123.6z"/>
	<circle class="st2" cx="177.6" cy="236.4" r="24.5"/>
	<path class="st3" d="M241.3,367.7v-18.5c0-21.7-17.6-39.2-39.2-39.2h-49c-21.7,0-39.2,17.6-39.2,39.2v18.5H241.3z"/>
</g>
<path class="st4" d="M118.7,55H74.6c-21.7,0-39.2,17.6-39.2,39.2v29.4h44.1V94.2C79.5,72.5,97.1,55,118.7,55z"/>
<path class="st5" d="M197.2,236.4c0-3.7,1-7.2,2.5-10.3c-3.9-8.3-12.3-14.2-22.1-14.2c-13.5,0-24.5,11-24.5,24.5
	c0,13.5,11,24.5,24.5,24.5c9.8,0,18.1-5.9,22.1-14.2C198.1,243.5,197.2,240.1,197.2,236.4z"/>
<path class="st5" d="M197.2,309.9H153c-21.7,0-39.2,17.6-39.2,39.2v18.5h44.1v-18.5C157.9,327.5,175.5,309.9,197.2,309.9z"/>
<path class="st6" d="M79.5,417.8V123.6H35.4v294.2c0,21.7,17.6,39.2,39.2,39.2h44.1C97.1,457,79.5,439.5,79.5,417.8z"/>
<g>
	<g>
		<path class="st7" d="M177.6,203.2c-18.3,0-33.2,14.9-33.2,33.2s14.9,33.2,33.2,33.2s33.2-14.9,33.2-33.2S195.9,203.2,177.6,203.2z
			 M177.6,252.2c-8.7,0-15.8-7.1-15.8-15.8s7.1-15.8,15.8-15.8s15.8,7.1,15.8,15.8S186.3,252.2,177.6,252.2z"/>
	</g>
	<g>
		<path class="st7" d="M250,349.1v18.5h-17.4v-18.5c0-16.8-13.7-30.5-30.5-30.5h-49c-16.8,0-30.5,13.7-30.5,30.5v18.5h-17.4v-18.5
			c0-26.4,21.5-47.9,47.9-47.9h49C228.5,301.2,250,322.7,250,349.1z"/>
	</g>
	<g>
		<path class="st7" d="M424.4,291.1l-1.7,2l-6,7l-5.1,6L389.3,332l-13.2-11.3l12.5-14.6l10.3-12h-97.6v-17.4h97.6l-10.3-12
			l-12.5-14.6l13.2-11.3l22.2,25.9l5.1,6l6,7l1.7,2C427.2,283,427.2,287.8,424.4,291.1z"/>
	</g>
	<g>
		<path class="st7" d="M437.4,46.3H74.6c-26.4,0-47.9,21.5-47.9,47.9v323.6c0,26.4,21.5,47.9,47.9,47.9h362.8
			c26.4,0,47.9-21.5,47.9-47.9V94.2C485.3,67.8,463.8,46.3,437.4,46.3z M467.9,417.8c0,16.8-13.7,30.5-30.5,30.5H74.6
			c-16.8,0-30.5-13.7-30.5-30.5V132.3h423.8V417.8z M467.9,114.9H44.1V94.2c0-16.8,13.7-30.5,30.5-30.5h362.8
			c16.8,0,30.5,13.7,30.5,30.5V114.9z"/>
	</g>
</g>
<circle class="st7" cx="301.5" cy="285.4" r="8.7"/>
<circle class="st7" cx="382.7" cy="244.5" r="8.7"/>
<circle class="st7" cx="383.6" cy="325.4" r="8.7"/>
</svg>
